<svg width="20" height="20" viewBox="0 0 20 20" fill="none" xmlns="http://www.w3.org/2000/svg">
<g clip-path="url(#clip0_1837_301)">
<path d="M10 0.833496C4.94557 0.833496 0.833374 4.94569 0.833374 10.0002C0.833374 15.0546 4.94557 19.1668 10 19.1668C15.0545 19.1668 19.1667 15.0546 19.1667 10.0002C19.1667 4.94569 15.0545 0.833496 10 0.833496ZM2.59136 10.0002C2.59136 8.27356 3.18657 6.68459 4.18034 5.42336L14.5766 15.8196C13.3156 16.8136 11.7266 17.4088 10 17.4088C5.91472 17.4088 2.59136 14.0855 2.59136 10.0002ZM15.8197 14.577L5.42324 4.18046C6.68447 3.18669 8.27344 2.59149 10 2.59149C14.0854 2.59149 17.4087 5.91484 17.4087 10.0002C17.4087 11.7268 16.8135 13.3157 15.8197 14.577Z" fill="#ADB4BF"/>
</g>
<defs>
<clipPath id="clip0_1837_301">
<rect width="20" height="20" fill="white"/>
</clipPath>
</defs>
</svg>
